# xmcd
#
# Track frame offsets: 
#        150
#        16342
#        28330
#        45431
#        65557
#        82423
#        99994
#        118977
#        137954
#        155248
#        175447
#        191076
#        210236
#        227453
#        246247
#        263881
#        279929
#        297798
#        311603
#        328417
#
# Disc length: 4648 seconds
#
# Revision: 0
# Processed by: cddbd v1.5.2PL0 Copyright (c) Steve Scherf et al.
# Submitted via: ExactAudioCopy v1.1
#
DISCID=31122614
DTITLE=Various Artist - De Pré Historie 80 - 4 CD Box - CD 3
DYEAR=2010
DGENRE=Top 40
TTITLE0=Technotronic Feat. Felly - Pump Up The Jam
TTITLE1=Alvin Stardust - Pretend
TTITLE2=Rockwell - Somebody's Watching Me
TTITLE3=Grace Jones - I've Seen That Face Before (Libertango)
TTITLE4=Eddy Grant - Gimme Hope Jo'anna
TTITLE5=Frida - I Know There's Something Going On
TTITLE6=Cameo - Word Up!
TTITLE7=Chris De Burgh - The Lady In Red
TTITLE8=Kid Creole and The Coconuts - Annie, I'm Not Your Daddy
TTITLE9=Wet Wet Wet - Angel Eyes (Home And Away)
TTITLE10=Salt-N-Pepa - Push It
TTITLE11=Commodores - Nightshift
TTITLE12=Ryan Paris - Dolce Vita
TTITLE13=Gladys Knight - Licence To Kill
TTITLE14=Glenn Medeiros - Nothing's Gonna Change My Love For You
TTITLE15=Gwen Guthrie - Ain't Nothin' Goin' On But The Rent
TTITLE16=ZZ Top - Gimme All Your Lovin'
TTITLE17=Amazulu - Too Good To Be Forgotten
TTITLE18=Boys Town Gang - Can't Take My Eyes Off You
TTITLE19=Tears For Fears - Shout
EXTD=
EXTT0=
EXTT1=
EXTT2=
EXTT3=
EXTT4=
EXTT5=
EXTT6=
EXTT7=
EXTT8=
EXTT9=
EXTT10=
EXTT11=
EXTT12=
EXTT13=
EXTT14=
EXTT15=
EXTT16=
EXTT17=
EXTT18=
EXTT19=
PLAYORDER=
